<svg id="Layer_1" data-name="Layer 1" xmlns="http://www.w3.org/2000/svg" viewBox="0 0 683 228"><defs><style>.cls-1{fill:#00d2ff;}.cls-2{fill:#fff;}.cls-3{fill:#ff8519;}.cls-4{fill:#b35500;}</style></defs><title>Untitled-2</title><g id="Ellipse_1" data-name="Ellipse 1"><circle class="cls-1" cx="114.89" cy="114" r="112.98"/><path class="cls-2" d="M114.89,2.52a111.48,111.48,0,0,1,78.82,190.31A111.48,111.48,0,0,1,36.06,35.17,110.76,110.76,0,0,1,114.89,2.52m0-3A114.48,114.48,0,1,0,229.37,114,114.48,114.48,0,0,0,114.89-.48Z"/></g><path class="cls-3" d="M128.91,140.76l3.76,8.63q-1.32,1-5.77,1.78t-11.59,1.31a109,109,0,0,1-16.47,13.39,66.67,66.67,0,0,1-16.28,7.87c-1.25.38-2.69.79-4.32,1.22a10.11,10.11,0,0,1-3.28-.61A28,28,0,0,1,71,172.62a17.78,17.78,0,0,1-3.48-2.72,4,4,0,0,1-1.22-2.73,7.61,7.61,0,0,1,2.73-5.44,27.75,27.75,0,0,1,8-5q10.52-4.87,20.74-9.85a3.12,3.12,0,0,1,2.16.61,2,2,0,0,1,.66,1.54c0,1.69-1.21,3.12-3.62,4.27s-3.61,2-3.61,2.49c.44.63.81.94,1.13.94q1.22,0,5.39-3.66c2.78-2.44,4.15-4,4.08-4.6l-.47-2.16.19-.37a23.07,23.07,0,0,0,3.62-3.85,5.29,5.29,0,0,0,1.17-2.72c0-1.56-.79-3.66-2.35-6.29a74.51,74.51,0,0,0-7-9.48,92.21,92.21,0,0,0-7.13-7.74q-3.57-3.42-6.85-6a21.51,21.51,0,0,1-2.25-2.2,14.11,14.11,0,0,1-1.5-2c-.69-1.25-1.24-2.29-1.64-3.1a5.14,5.14,0,0,0-1.08-1.59c-.32-.38-.74-.83-1.27-1.36s-1.17-1.15-1.92-1.83A13.78,13.78,0,0,1,72.38,92a32.63,32.63,0,0,1-1.08-9.1,24.43,24.43,0,0,1,1-6.9,19.84,19.84,0,0,1,2.87-6c.18-.37.37-.81.56-1.31s.4-1.06.66-1.69a36.6,36.6,0,0,1,7.31-9.52A97.63,97.63,0,0,1,97.2,46.69c.75-.38,1.65-.88,2.72-1.5a37.73,37.73,0,0,0,3.56-2.44A15.77,15.77,0,0,1,106,41.06a21.78,21.78,0,0,1,3.24-1.41q2.54-1,5.72-2.25a68.22,68.22,0,0,1,7.79-3.57,15.25,15.25,0,0,1,4.69-1.12,5.67,5.67,0,0,1,4.65,1.87A8.39,8.39,0,0,1,133.61,40a28.06,28.06,0,0,1-.61,6.42,6.19,6.19,0,0,1-1.65,3.33q-11.07,8.84-17.82,13.28t-9.48,4.46a2.8,2.8,0,0,1-2.07-.75,3.06,3.06,0,0,1-.75-2.25q0-2.53,4.23-5.59c2.81-2,4.19-3.58,4.12-4.64l-.84-.56a2.62,2.62,0,0,0-1.08.28,7.5,7.5,0,0,0-1.27.75A79.84,79.84,0,0,0,94,66.72Q89.79,72,89.78,76a19.49,19.49,0,0,0,1.08,6.29A32.62,32.62,0,0,0,94,88.82c1,1.57,2.45,3.55,4.36,6s4.33,5.3,7.27,8.68q6.1,7,9.39,10.88a40.42,40.42,0,0,0,3.66,4,36.62,36.62,0,0,1,3.19,4.88,17.62,17.62,0,0,1,1.78,4.69,25.25,25.25,0,0,1,.66,4.41q.18,2.63.18,6.38c0,1.47.22,2.32.66,2.54a5.19,5.19,0,0,0,2.16.32,1.49,1.49,0,0,0,.89-.23A6,6,0,0,0,128.91,140.76Z"/><path class="cls-3" d="M161,156l1.71,3.93a6.69,6.69,0,0,1-2.63.81q-2,.34-5.28.6a49.62,49.62,0,0,1-7.5,6.1,30.28,30.28,0,0,1-7.41,3.58c-.57.17-1.23.36-2,.56a4.79,4.79,0,0,1-1.49-.28,14.41,14.41,0,0,1-1.8-.79,8,8,0,0,1-1.58-1.24,1.81,1.81,0,0,1-.55-1.24,3.48,3.48,0,0,1,1.23-2.48,12.63,12.63,0,0,1,3.64-2.26q4.78-2.24,9.44-4.49a1.41,1.41,0,0,1,1,.28.93.93,0,0,1,.29.7c0,.77-.54,1.42-1.64,2s-1.65.9-1.65,1.13c.2.28.37.43.52.43.37,0,1.19-.56,2.45-1.67s1.89-1.81,1.86-2.1l-.21-1,.09-.17a10.46,10.46,0,0,0,1.64-1.75,2.41,2.41,0,0,0,.54-1.24,6.17,6.17,0,0,0-1.07-2.86,33.67,33.67,0,0,0-3.21-4.32,40.34,40.34,0,0,0-3.25-3.53c-1.08-1-2.12-2-3.12-2.75a9.77,9.77,0,0,1-1-1,6.11,6.11,0,0,1-.69-.92c-.31-.57-.56-1-.74-1.41a2.15,2.15,0,0,0-.5-.72c-.14-.17-.33-.38-.57-.62l-.88-.84a6.23,6.23,0,0,1-1.39-2.6,14.89,14.89,0,0,1-.49-4.15,11,11,0,0,1,.45-3.14,9,9,0,0,1,1.3-2.71c.09-.18.17-.37.26-.6s.18-.49.3-.77a16.52,16.52,0,0,1,3.33-4.34,45.09,45.09,0,0,1,6.16-4.94c.34-.17.75-.4,1.24-.68a17.67,17.67,0,0,0,1.62-1.11,7,7,0,0,1,1.13-.77A9.94,9.94,0,0,1,152,110c.77-.32,1.63-.66,2.6-1a31.22,31.22,0,0,1,3.55-1.62,7,7,0,0,1,2.14-.51,2.57,2.57,0,0,1,2.11.85,3.82,3.82,0,0,1,.71,2.48,12.4,12.4,0,0,1-.28,2.93,2.71,2.71,0,0,1-.75,1.51q-5,4-8.12,6.05t-4.31,2a1.25,1.25,0,0,1-.94-.34,1.39,1.39,0,0,1-.35-1c0-.77.64-1.61,1.93-2.54s1.91-1.63,1.88-2.11l-.39-.26a1.16,1.16,0,0,0-.49.13,3.62,3.62,0,0,0-.58.34,36.54,36.54,0,0,0-5.66,5.45,7.23,7.23,0,0,0-1.9,4.21,8.82,8.82,0,0,0,.49,2.86,15.28,15.28,0,0,0,1.43,3c.46.72,1.12,1.62,2,2.72s2,2.41,3.31,4q2.77,3.21,4.28,5a18.58,18.58,0,0,0,1.66,1.84,16.58,16.58,0,0,1,1.46,2.22,8.1,8.1,0,0,1,.81,2.14,11.67,11.67,0,0,1,.3,2c0,.8.08,1.77.08,2.91,0,.67.1,1,.3,1.15a2.35,2.35,0,0,0,1,.15.69.69,0,0,0,.41-.1A2.56,2.56,0,0,0,161,156Z"/><path class="cls-4" d="M274.18,130l2.09,4.81a8.19,8.19,0,0,1-3.21,1q-2.49.42-6.45.73a60.86,60.86,0,0,1-9.17,7.45,36.78,36.78,0,0,1-9.07,4.39c-.69.21-1.49.43-2.4.68a5.85,5.85,0,0,1-1.83-.34,16.3,16.3,0,0,1-2.19-1,9.92,9.92,0,0,1-1.94-1.51,2.25,2.25,0,0,1-.68-1.52,4.26,4.26,0,0,1,1.52-3,15.61,15.61,0,0,1,4.44-2.77q5.85-2.72,11.55-5.48a1.74,1.74,0,0,1,1.2.34,1.12,1.12,0,0,1,.36.86q0,1.41-2,2.37c-1.34.65-2,1.11-2,1.39.24.35.45.52.63.52q.68,0,3-2c1.55-1.35,2.31-2.21,2.27-2.56l-.26-1.2.11-.21a13,13,0,0,0,2-2.14,3,3,0,0,0,.65-1.51,7.51,7.51,0,0,0-1.3-3.5,40.41,40.41,0,0,0-3.92-5.28,52.92,52.92,0,0,0-4-4.31c-1.33-1.27-2.6-2.4-3.82-3.37a12.2,12.2,0,0,1-1.25-1.23,8,8,0,0,1-.84-1.12c-.38-.7-.69-1.27-.91-1.73a2.79,2.79,0,0,0-.6-.88c-.18-.21-.41-.47-.71-.76s-.65-.64-1.07-1a7.72,7.72,0,0,1-1.7-3.19,18.24,18.24,0,0,1-.6-5.07,13.71,13.71,0,0,1,.55-3.84,11.05,11.05,0,0,1,1.6-3.31c.1-.21.2-.46.31-.74s.23-.59.36-.94a20.79,20.79,0,0,1,4.08-5.3,54.4,54.4,0,0,1,7.52-6c.42-.21.93-.49,1.52-.84a20.41,20.41,0,0,0,2-1.36,8.68,8.68,0,0,1,1.39-.94,11,11,0,0,1,1.8-.78c.94-.38,2-.8,3.19-1.26a39,39,0,0,1,4.33-2,8.44,8.44,0,0,1,2.62-.63,3.13,3.13,0,0,1,2.58,1,4.6,4.6,0,0,1,.86,3,16,16,0,0,1-.33,3.58,3.48,3.48,0,0,1-.92,1.85q-6.17,4.92-9.93,7.39t-5.27,2.49a1.55,1.55,0,0,1-1.15-.42,1.71,1.71,0,0,1-.42-1.26c0-.94.78-2,2.35-3.11s2.33-2,2.3-2.58l-.47-.31a1.47,1.47,0,0,0-.6.15,5.47,5.47,0,0,0-.71.42,44.34,44.34,0,0,0-6.92,6.66q-2.33,3-2.32,5.15a10.91,10.91,0,0,0,.6,3.5,18.35,18.35,0,0,0,1.75,3.66,39.25,39.25,0,0,0,2.43,3.31c1.06,1.34,2.41,3,4.05,4.84q3.39,3.92,5.22,6.06a21.33,21.33,0,0,0,2,2.24,20,20,0,0,1,1.77,2.72,10,10,0,0,1,1,2.61,14.09,14.09,0,0,1,.36,2.46c.07,1,.11,2.16.11,3.55q0,1.23.36,1.41a3,3,0,0,0,1.2.18.82.82,0,0,0,.5-.13A2.77,2.77,0,0,0,274.18,130Z"/><path class="cls-4" d="M275.8,127.78l4.76-3.14c.17-.17.38-.41.62-.7a8.87,8.87,0,0,0,.84-1.28,3.47,3.47,0,0,1,1-1.15,7.14,7.14,0,0,1,1.38-.84,16.85,16.85,0,0,1,1.2-1.3c.52-.53,1.19-1.14,2-1.83.38-.21.87-.52,1.46-.92A15.15,15.15,0,0,0,291,115a56.13,56.13,0,0,1,8.34-6.74q3.57-2.25,6-2.25a2.93,2.93,0,0,1,2,.58,2,2,0,0,1,.66,1.62,4.53,4.53,0,0,1-.4,1.93,3.5,3.5,0,0,1-1.22,1.41c-.87.63-1.82,1.33-2.83,2.09a24.55,24.55,0,0,1-2,2.33,25.09,25.09,0,0,1-2.82,2.42c-.35.46-.65.86-.89,1.21-.18.17-.51.49-1,.94a22,22,0,0,1-1.93,1.56,12,12,0,0,1-2.27,3q-1.75,1.83-4.68,4.39a17.24,17.24,0,0,0-1.3,1.67q-.94,1.31-2.46,3.45l.37.47a8.94,8.94,0,0,0,2.4-1.25,24.35,24.35,0,0,0,2.77-2.35l2.9-2.64a15.79,15.79,0,0,1,1.59-1.33l.73-.42c.25-.14.53-.32.84-.52a21.86,21.86,0,0,1,4.49-4.26,7.1,7.1,0,0,1,3.87-1.39,1.89,1.89,0,0,1,1.67.86,5.37,5.37,0,0,1,.68,2.59c-.07,1.74-.1,3.41-.1,5a4.66,4.66,0,0,0,.91,3,3,3,0,0,0,2.53,1.33,1.74,1.74,0,0,0,.92-.26,5.65,5.65,0,0,0,.91-.68l.71-.89.7-.83a5.26,5.26,0,0,0,.6-.37,4.39,4.39,0,0,0,.76-.62c.49,1,.9,2,1.23,2.74a21.32,21.32,0,0,1,.76,2.06c-.8.73-1.6,1.49-2.38,2.28a30.89,30.89,0,0,1-2.48,2.22,13.67,13.67,0,0,1-3,1.8,7.68,7.68,0,0,1-2.93.6,6.87,6.87,0,0,1-5.22-1.93,9.34,9.34,0,0,1-2.14-5.86,3.65,3.65,0,0,0-.14-1,2.82,2.82,0,0,0-.54-1l-.58.55a9.27,9.27,0,0,0-.73.76l-1.7,1.3c-.68.52-1.47,1.15-2.37,1.88-1.22,1.26-2.25,2.28-3.09,3.08s-1.43,1.38-1.77,1.73a23.24,23.24,0,0,1-2.43,1.77c-.93.6-2,1.21-3.11,1.83-.73.39-1.36.69-1.88.92a3.58,3.58,0,0,1-1.15.34,5,5,0,0,1-3.71-1.23,5.24,5.24,0,0,1-1.2-3.79,6.29,6.29,0,0,1,.6-2.69,8.91,8.91,0,0,1,1.8-2.48,7.39,7.39,0,0,0,.1-1.1,1.33,1.33,0,0,0-.13-.55,6,6,0,0,0-.34-.65c-.2-.49-.44-1-.7-1.64s-.55-1.27-.86-2a5.57,5.57,0,0,0,.6-.81C275.15,128.87,275.45,128.37,275.8,127.78Z"/><path class="cls-4" d="M314.31,130.08c.21-.25.45-.57.73-1l.94-1.33c1.53-1.92,3-3.63,4.47-5.15s2.82-2.86,4.11-4c.66-.62,1.46-1.43,2.41-2.43s2-2.13,3.29-3.42c1.26-.49,2.63-1,4.14-1.67a2.44,2.44,0,0,1,2.09.91,4.4,4.4,0,0,1,.67,2.64,22.5,22.5,0,0,1-.23,3.16c-.16,1.13-.38,2.29-.65,3.48-.32.94-.58,1.84-.79,2.71a.79.79,0,0,0,.16.55.65.65,0,0,0,.52.18,15.53,15.53,0,0,0,3-2.61c1.5-1.5,3.47-3.58,5.91-6.27a37.38,37.38,0,0,1,5.48-5.14,7.26,7.26,0,0,1,3.76-1.7,2.43,2.43,0,0,1,2.22,1.12,6.33,6.33,0,0,1,.71,3.32,39.48,39.48,0,0,1-.47,6.14,24.91,24.91,0,0,1-1.62,5.67,3.67,3.67,0,0,0-.26.89,4.07,4.07,0,0,0-.05.67c0,.25.2.47.62.68a8.61,8.61,0,0,0,1-1c.36-.45.79-1,1.28-1.73l2.4-2q1.2-1,2.61-2a12,12,0,0,1,3-1.75,8,8,0,0,1,3-.6,1,1,0,0,1,.52.16,4.06,4.06,0,0,1,.52.36,24.88,24.88,0,0,1,2,1.91,7,7,0,0,1,1.1,1.49,37.51,37.51,0,0,0,3.63,6.24q1.59,2.07,2.79,2.07a1.25,1.25,0,0,0,.52-.13,2.73,2.73,0,0,0,.52-.34c.8,1.7,1.48,3.31,2,4.8A21.76,21.76,0,0,1,379,137.1a5.7,5.7,0,0,1-2.56.76q-3.6,0-7.44-4.68c-2.56-3.11-4.51-4.67-5.87-4.67q-2.72,0-9,8t-7.89,8a17.38,17.38,0,0,1-2.09-.16,1.05,1.05,0,0,1-.62-.65,3,3,0,0,1-.21-1.18,9,9,0,0,1,.31-2.06c.21-.85.49-1.86.84-3,.45-1.47.81-2.63,1.09-3.51a10.21,10.21,0,0,0,.47-1.82c.11-.46.26-1.34.45-2.67s.44-3.08.76-5.28a1.17,1.17,0,0,0-.32-.88,1,1,0,0,0-.73-.32,1.76,1.76,0,0,0-.81.24,5.42,5.42,0,0,0-1,.76q-.63.67-1.38,1.35c-.51.46-1.32,1.1-2.43,1.94l-3.74,4.26q-1.9,2.16-3.89,4.36a72,72,0,0,1-5,5.4c-1.24,1.17-2,1.75-2.38,1.75a6.09,6.09,0,0,1-2.38-.36,1.17,1.17,0,0,1-.81-1.1q0-1.73,1.86-7.18t1.86-7.71a.8.8,0,0,0-.84-.83,2.51,2.51,0,0,0-1.49.7,11.78,11.78,0,0,0-2,2.22c-.49.56-1.08,1.2-1.78,1.93s-1.56,1.59-2.57,2.57a3.62,3.62,0,0,1-.42.8,6,6,0,0,1-.57.76,14.23,14.23,0,0,0-.73-1.93C315.32,132.18,314.86,131.23,314.31,130.08Z"/><path class="cls-4" d="M380.24,130.08l.32-.37a4.39,4.39,0,0,1,.91-1.57,9.15,9.15,0,0,1,2-1.67c1.15-.73,2-1.32,2.69-1.78a5.14,5.14,0,0,0,1.18-1,5.07,5.07,0,0,0,.62-.89,15.74,15.74,0,0,0,1.41-1.15c.56-.48,1.19-1.08,1.89-1.77a3.82,3.82,0,0,0,.78-.84,14.7,14.7,0,0,0,.84-1.3c.45-.32,1-.72,1.54-1.21s1.24-1.11,2-1.88c.87-.94,1.85-2,2.95-3.11s2.32-2.3,3.68-3.52a10.14,10.14,0,0,1,1.28-.5,4.13,4.13,0,0,1,1.18-.18,4.94,4.94,0,0,1,3.53,1.12,4.25,4.25,0,0,1,1.17,3.22,13.38,13.38,0,0,1-.18,1.72q-.18,1.2-.39,3-.74,5.28-1.05,6.43c-.21.76-.94,3.17-2.19,7.21a24,24,0,0,0-.86,2.45l-1.08,3.55a1.16,1.16,0,0,0,.53.42,2.91,2.91,0,0,0,1.3-.7c.63-.47,1.47-1.18,2.51-2.12,1.22-1.11,2.18-2,2.87-2.56a15.42,15.42,0,0,1,1.31-1l1.15,2.58c.35.79.64,1.53.89,2.22a7.82,7.82,0,0,0-1.23.94,9.41,9.41,0,0,0-1,1.15l-2.53,1.67c-1,.63-2,1.31-3.16,2-.53.52-1.23,1.16-2.12,1.91l-3,2.53-1,.21a8.16,8.16,0,0,1-1.38,1.52,5.2,5.2,0,0,1-1.18.73c-.55.21-1.11.41-1.67.6l-1.77.6a1.23,1.23,0,0,1-.84-.68,2.66,2.66,0,0,1-.21-1.36,13.58,13.58,0,0,1-1.25-3.24,16,16,0,0,1-.47-4.07,6.93,6.93,0,0,1,.05-.89c0-.31.07-.59.1-.84a10.41,10.41,0,0,1-.36-1.62,3.24,3.24,0,0,1,1.2-2.58,4.09,4.09,0,0,1,2.72-1,1.16,1.16,0,0,1,1.12.81c.23.54.46.81.7.81s.5-.48.76-1.44a33.67,33.67,0,0,0,.76-4.2c.24-1.61.4-3,.47-4.18s.1-2.09.1-2.72a1.57,1.57,0,0,0-.28-1,1.2,1.2,0,0,0-1-.34q-.68,0-4.39,3.14t-10.34,9.35a10,10,0,0,1-.6.89c-.26.34-.57.78-.92,1.3a13,13,0,0,0-.73-1.93C381.25,132.18,380.8,131.23,380.24,130.08Z"/><path class="cls-4" d="M413,130.08c.69-.91,1.59-2,2.69-3.27s2.43-2.72,4-4.36c.11-.32.25-.69.42-1.12s.44-1,.79-1.65q2.76-4.12,5-7.94a74.08,74.08,0,0,0,3.76-7.42c.32-.59.65-1.33,1-2.22s.83-1.89,1.38-3a9.1,9.1,0,0,1,1.44-1.93,2.05,2.05,0,0,1,1.39-.68,1.66,1.66,0,0,1,1.54.89,5.91,5.91,0,0,1,.49,2.77,40,40,0,0,1-1.8,6.77q-1.8,5.72-5.35,16.11a68.47,68.47,0,0,0-2.09,7q-1.15,4.51-2.67,11.26c-.1.66-.22,1.43-.34,2.3s-.3,1.88-.55,3c-.59,2.23-1,4-1.25,5.33a12.34,12.34,0,0,0-.31,2.56l.21.42a2.38,2.38,0,0,0,.6-1,12.92,12.92,0,0,0,.6-2.4c.21-.94.36-1.73.47-2.38a5.15,5.15,0,0,0,.05-1.59c.77-2,1.67-4.61,2.72-7.76s2.26-6.82,3.65-11c.56-1,1.2-2.24,1.91-3.68s1.47-3.16,2.27-5.15a12.08,12.08,0,0,1,2.17-1.7,3.51,3.51,0,0,1,1.65-.54,5,5,0,0,1,2.71.78,7.85,7.85,0,0,1,2.3,2.3,14.62,14.62,0,0,1,1,1.85c.47,1,1.1,2.35,1.91,4a9.5,9.5,0,0,0,1.41,2.43,2.19,2.19,0,0,0,1.41.92l2.19,4.8-1.38.37c-.75.21-1.82.43-3.22.68l-3.55-1.31a7.56,7.56,0,0,1-3.16-2.56,8.23,8.23,0,0,0-3-2.56,9.23,9.23,0,0,0-2.35,3.08,42.47,42.47,0,0,0-2.56,6,15.3,15.3,0,0,1-.82,1.8c-.33.65-.67,1.39-1,2.22-.21,1.33-.46,2.6-.73,3.82a41.41,41.41,0,0,0-1.47,4q-.78,2.43-1.67,5.78a19.42,19.42,0,0,1-1.33,3.44,15.34,15.34,0,0,0-1.28,3.51,15.49,15.49,0,0,1-.45,1.93,24.34,24.34,0,0,1-1,2.82,18.38,18.38,0,0,1-2.2,3.16,2.68,2.68,0,0,1-1.67,1.07,2.5,2.5,0,0,1-2.35-1.51,10.13,10.13,0,0,1-.79-4.5q0-4.48.53-9.87c.34-3.59.87-7.44,1.56-11.55.21-1.18.44-2.38.68-3.6s.49-2.46.73-3.71a34.85,34.85,0,0,0,.66-4,19.7,19.7,0,0,0,.08-3.3,5.84,5.84,0,0,0-1.75,1.34,37.18,37.18,0,0,0-3.11,3.52,14.23,14.23,0,0,0-.73-1.93C414,132.18,413.5,131.23,413,130.08Z"/><path class="cls-4" d="M449.47,130.08l.31-.37.16-.52a34.43,34.43,0,0,1,5-5,32,32,0,0,0,4.91-5.05,3.43,3.43,0,0,1,1.2-1.2,2.91,2.91,0,0,1,1.36-.36,5.11,5.11,0,0,1,3.09.91,4.52,4.52,0,0,1,1.67,2.74c.24,1.08.47,2.17.68,3.27s.38,2.2.52,3.32c.24.69.54,1.75.89,3.16a9.34,9.34,0,0,0,.78,2.43,1.54,1.54,0,0,0,.78.75,3.16,3.16,0,0,0,1.31.24A5.82,5.82,0,0,0,474,134a7,7,0,0,0,2-1.18q.78-.68,1.65-1.38l1.7-1.38,2.09,4.8a22.48,22.48,0,0,1-2.23,1.91c-.92.71-2,1.54-3.31,2.48a27,27,0,0,1-3.66,2.33,5.87,5.87,0,0,1-2.3.75c-3.17,0-5.22-.36-6.17-1.09s-2-2.77-3.13-6.12a8.45,8.45,0,0,0-.63-1c-.28-.38-.59-.83-.94-1.36A11.92,11.92,0,0,0,458,131c-.32-.4-.58-.6-.79-.6a4.14,4.14,0,0,0-2.24,1.12,32.38,32.38,0,0,0-3.45,3.37c-.18-.45-.39-1-.66-1.62s-.53-1.36-.81-2.19a2.34,2.34,0,0,0-.26-.58A1.31,1.31,0,0,0,449.47,130.08Zm21.84-41.23a2.84,2.84,0,0,1,1.9.53,1.88,1.88,0,0,1,.6,1.51c-.2,1-.38,1.8-.52,2.46-.35,1.25-.65,2.28-.91,3.08s-.46,1.38-.6,1.72a6.68,6.68,0,0,1-1.28,2,9.34,9.34,0,0,1-2,1.54,11.52,11.52,0,0,1-2,1.17,2.54,2.54,0,0,1-1.13.29l-1.69-.18a14.65,14.65,0,0,0-1.6-.08A2.52,2.52,0,0,1,461,101.5a8.31,8.31,0,0,1-.39-2.82c0-1.05.63-2.36,1.91-4s2.39-2.43,3.36-2.53c.6-.73,1.29-1.57,2.09-2.51a4.79,4.79,0,0,1,1.36-.6A7.1,7.1,0,0,1,471.31,88.85Z"/><path class="cls-4" d="M479.35,130.08l.32-.37a4.39,4.39,0,0,1,.91-1.57,9.15,9.15,0,0,1,2-1.67c1.15-.73,2.05-1.32,2.69-1.78a5.14,5.14,0,0,0,1.18-1,5.07,5.07,0,0,0,.62-.89,17.19,17.19,0,0,0,1.42-1.15c.55-.48,1.18-1.08,1.88-1.77a3.82,3.82,0,0,0,.78-.84,14.7,14.7,0,0,0,.84-1.3c.45-.32,1-.72,1.54-1.21s1.24-1.11,2-1.88c.87-.94,1.85-2,2.95-3.11s2.33-2.3,3.68-3.52a10.14,10.14,0,0,1,1.28-.5,4.13,4.13,0,0,1,1.18-.18,4.94,4.94,0,0,1,3.53,1.12,4.25,4.25,0,0,1,1.17,3.22,13.38,13.38,0,0,1-.18,1.72q-.18,1.2-.39,3-.74,5.28-1,6.43c-.21.76-.94,3.17-2.19,7.21a24,24,0,0,0-.86,2.45l-1.08,3.55a1.16,1.16,0,0,0,.53.42,2.91,2.91,0,0,0,1.3-.7c.63-.47,1.47-1.18,2.51-2.12,1.22-1.11,2.18-2,2.87-2.56a15.42,15.42,0,0,1,1.31-1l1.15,2.58c.35.79.64,1.53.89,2.22a8.32,8.32,0,0,0-1.23.94,9.41,9.41,0,0,0-1,1.15c-.73.49-1.57,1.05-2.53,1.67s-2,1.31-3.16,2c-.53.52-1.23,1.16-2.12,1.91l-3,2.53-1,.21a8.16,8.16,0,0,1-1.38,1.52,5.2,5.2,0,0,1-1.18.73c-.55.21-1.11.41-1.67.6l-1.77.6a1.23,1.23,0,0,1-.84-.68,2.77,2.77,0,0,1-.21-1.36,13.58,13.58,0,0,1-1.25-3.24,16,16,0,0,1-.47-4.07,6.93,6.93,0,0,1,.05-.89c0-.31.07-.59.1-.84a10.41,10.41,0,0,1-.36-1.62,3.24,3.24,0,0,1,1.2-2.58,4.09,4.09,0,0,1,2.72-1,1.16,1.16,0,0,1,1.12.81c.23.54.46.81.7.81s.5-.48.76-1.44a33.67,33.67,0,0,0,.76-4.2c.24-1.61.4-3,.47-4.18s.1-2.09.1-2.72a1.57,1.57,0,0,0-.28-1,1.2,1.2,0,0,0-1-.34q-.68,0-4.39,3.14T483,132.69a10,10,0,0,1-.6.89c-.26.34-.57.78-.92,1.3a13,13,0,0,0-.73-1.93C480.36,132.18,479.91,131.23,479.35,130.08Z"/><path class="cls-4" d="M512.06,130.08a13,13,0,0,1,1.62-2.22,19.36,19.36,0,0,1,2.51-2.33c.1-.7.2-1.38.31-2.06s.17-1.37.21-2.07a14.24,14.24,0,0,1,.5-1.72c.22-.66.47-1.38.75-2.14s.74-1.73,1.28-2.88a41.69,41.69,0,0,1,2.12-3.86c.73-.8,1.5-1.68,2.3-2.64l2.4-2.9a12.08,12.08,0,0,1,1.25-.89,14.41,14.41,0,0,0,1.36-.94,13,13,0,0,1,1.41-.37,9.29,9.29,0,0,1,1.73-.15,7.16,7.16,0,0,1,2.11.26,2.81,2.81,0,0,1,1.34.89,4.66,4.66,0,0,1,.7,1.25,15,15,0,0,1,.65,2c.11.7.23,1.46.37,2.3,0-.21-.06-.12-.18.26s-.31,1-.55,1.83l-.47,1.67a18.63,18.63,0,0,1-3.29,5.8,77.69,77.69,0,0,1-6.9,7.52,3.55,3.55,0,0,0-.63.92,2.71,2.71,0,0,0-.26,1.17,4.49,4.49,0,0,0,.39,1.93,2.79,2.79,0,0,0,1.13,1.26,5,5,0,0,0,1.33.63,19.11,19.11,0,0,0,2.17.57,16.43,16.43,0,0,0,3.71-.68,16,16,0,0,0,3-1.25c.17-.11.45-.25.83-.45a6.26,6.26,0,0,0,1.15-.75l1.2,2.71c.35.8.63,1.5.84,2.09A32.23,32.23,0,0,1,535,139.3a8.73,8.73,0,0,1-4.47,1.49,6,6,0,0,1-1.9.75,11.78,11.78,0,0,1-2.54.24,9.29,9.29,0,0,1-3.42-.58,6.36,6.36,0,0,1-2.48-1.67,6.19,6.19,0,0,1-1.05-1.54c-.34-.68-.71-1.49-1.09-2.43a8.3,8.3,0,0,0-.89-1.7,1.19,1.19,0,0,0-.94-.54,1.64,1.64,0,0,0-.94.39,6.73,6.73,0,0,0-1.15,1.17,13,13,0,0,0-.73-1.93C513.07,132.18,512.62,131.23,512.06,130.08Zm16.72-17q-1.15,0-3.08,3t-1.94,4.41a.62.62,0,0,0,.13.45.8.8,0,0,0,.55.13,1.08,1.08,0,0,0,.94-.6l.68-1.12c.38-.35.76-.73,1.12-1.13l1.07-1.17a5.81,5.81,0,0,0,1-1.47,3.79,3.79,0,0,0,.31-1.46,1.45,1.45,0,0,0-.18-.76A.62.62,0,0,0,528.78,113.1Z"/><path class="cls-4" d="M538.34,130.08c.56-.74,1.11-1.5,1.67-2.3a47.14,47.14,0,0,0,6.24-6,22.82,22.82,0,0,0,3.53-5.41l-.52-2.5a9.93,9.93,0,0,1,3.37-3.08A8.66,8.66,0,0,1,557,109a4.51,4.51,0,0,1,3,1c.82.7,1.61,1.43,2.38,2.2q.57.36.84.57a9.47,9.47,0,0,1,3.13,4.34,19.08,19.08,0,0,1,1,6.74,17.17,17.17,0,0,1-1.62,6,17.21,17.21,0,0,0-1.62,5.88.54.54,0,0,0,.18.42.76.76,0,0,0,.5.15,3.19,3.19,0,0,0,1.62-.6,14.45,14.45,0,0,0,2-1.64,25.7,25.7,0,0,1,3.35-3,8.42,8.42,0,0,0,1.41-1c.28.69.61,1.44,1,2.24s.75,1.66,1.1,2.56c-.32.28-.67.61-1.07,1s-.88.81-1.44,1.3c-1.18.87-2.73,1.93-4.62,3.16S564,143,561.38,144.6a9.71,9.71,0,0,1-2.41,1.1,6.54,6.54,0,0,1-3.29-.66,2.26,2.26,0,0,1-1.09-2.11,4.76,4.76,0,0,1,.23-1.33,14.34,14.34,0,0,1,.65-1.65c.21-.45.44-.91.68-1.38a10.14,10.14,0,0,0,.63-1.44,50.25,50.25,0,0,0,1.75-6.11,24.61,24.61,0,0,0,.6-5.07,8.46,8.46,0,0,0-.86-4.23,3.3,3.3,0,0,0-2.59-1.68,16,16,0,0,0-2.5,1.78,21.87,21.87,0,0,0-2.77,2.87,38.34,38.34,0,0,1-2.72,3.09,9.49,9.49,0,0,1-2,1.62,9.13,9.13,0,0,1-1.52,1.77,21.54,21.54,0,0,1-2.77,2.15l-.31.62a4.35,4.35,0,0,1-.68.94c-.28-.8-.59-1.59-.94-2.37S538.76,130.91,538.34,130.08Z"/><path class="cls-4" d="M573.19,130.08l.31-.37.16-.52a34.43,34.43,0,0,1,5-5,32.49,32.49,0,0,0,4.91-5.05,3.43,3.43,0,0,1,1.2-1.2,2.91,2.91,0,0,1,1.36-.36,5.06,5.06,0,0,1,3.08.91,4.49,4.49,0,0,1,1.68,2.74c.24,1.08.47,2.17.67,3.27s.39,2.2.53,3.32c.24.69.54,1.75.89,3.16a8.94,8.94,0,0,0,.78,2.43,1.5,1.5,0,0,0,.78.75,3.16,3.16,0,0,0,1.31.24,5.82,5.82,0,0,0,1.93-.34,7,7,0,0,0,2-1.18q.78-.68,1.65-1.38l1.69-1.38,2.09,4.8a21.13,21.13,0,0,1-2.22,1.91c-.92.71-2,1.54-3.32,2.48A26.37,26.37,0,0,1,596,141.6a5.87,5.87,0,0,1-2.3.75c-3.17,0-5.22-.36-6.17-1.09s-2-2.77-3.13-6.12a8.45,8.45,0,0,0-.63-1c-.28-.38-.59-.83-.94-1.36a11.82,11.82,0,0,0-1.1-1.8q-.46-.6-.78-.6a4.16,4.16,0,0,0-2.25,1.12,31.52,31.52,0,0,0-3.44,3.37l-.66-1.62c-.26-.62-.53-1.36-.81-2.19a2.77,2.77,0,0,0-.26-.58A1.31,1.31,0,0,0,573.19,130.08ZM595,88.85a2.84,2.84,0,0,1,1.9.53,1.88,1.88,0,0,1,.6,1.51c-.21,1-.38,1.8-.52,2.46-.35,1.25-.65,2.28-.91,3.08s-.47,1.38-.6,1.72a6.88,6.88,0,0,1-1.28,2,9.61,9.61,0,0,1-2,1.54,11.9,11.9,0,0,1-2,1.17,2.57,2.57,0,0,1-1.13.29l-1.7-.18a14.35,14.35,0,0,0-1.59-.08,2.52,2.52,0,0,1-1.07-1.41,8.31,8.31,0,0,1-.39-2.82c0-1.05.63-2.36,1.9-4s2.4-2.43,3.37-2.53c.6-.73,1.29-1.57,2.09-2.51a4.79,4.79,0,0,1,1.36-.6A7,7,0,0,1,595,88.85Z"/><path class="cls-4" d="M603.07,130.08a13,13,0,0,1,1.62-2.22,19.36,19.36,0,0,1,2.51-2.33c.1-.7.21-1.38.31-2.06a17.7,17.7,0,0,0,.21-2.07,16.35,16.35,0,0,1,.5-1.72c.22-.66.48-1.38.76-2.14s.73-1.73,1.27-2.88a41.69,41.69,0,0,1,2.12-3.86c.73-.8,1.5-1.68,2.3-2.64l2.4-2.9a12.23,12.23,0,0,1,1.26-.89c.45-.28.9-.59,1.36-.94a11.88,11.88,0,0,1,1.41-.37,9.1,9.1,0,0,1,1.72-.15,7.23,7.23,0,0,1,2.12.26,2.78,2.78,0,0,1,1.33.89,4.4,4.4,0,0,1,.7,1.25,16.41,16.41,0,0,1,.66,2c.1.7.22,1.46.36,2.3,0-.21-.06-.12-.18.26s-.31,1-.55,1.83l-.47,1.67a18.42,18.42,0,0,1-3.29,5.8,77.69,77.69,0,0,1-6.9,7.52,3.3,3.3,0,0,0-.62.92,2.58,2.58,0,0,0-.27,1.17,4.49,4.49,0,0,0,.4,1.93,2.71,2.71,0,0,0,1.12,1.26,5,5,0,0,0,1.33.63,19.11,19.11,0,0,0,2.17.57,16.33,16.33,0,0,0,3.71-.68,15.7,15.7,0,0,0,3-1.25c.17-.11.45-.25.83-.45a5.94,5.94,0,0,0,1.15-.75c.46,1,.86,1.91,1.2,2.71s.63,1.5.84,2.09A31.84,31.84,0,0,1,626,139.3a8.73,8.73,0,0,1-4.46,1.49,6.1,6.1,0,0,1-1.91.75,11.68,11.68,0,0,1-2.53.24,9.38,9.38,0,0,1-3.43-.58,6.36,6.36,0,0,1-2.48-1.67,5.93,5.93,0,0,1-1-1.54c-.35-.68-.72-1.49-1.1-2.43a7.83,7.83,0,0,0-.89-1.7,1.19,1.19,0,0,0-.94-.54,1.64,1.64,0,0,0-.94.39,6.73,6.73,0,0,0-1.15,1.17,13,13,0,0,0-.73-1.93C604.08,132.18,603.63,131.23,603.07,130.08Zm16.72-17c-.77,0-1.79,1-3.08,3s-1.94,3.47-1.94,4.41a.62.62,0,0,0,.14.45c.08.09.26.13.54.13a1.07,1.07,0,0,0,.94-.6c.25-.4.47-.78.68-1.12.39-.35.76-.73,1.13-1.13l1.07-1.17a5.76,5.76,0,0,0,.94-1.47,3.62,3.62,0,0,0,.31-1.46,1.45,1.45,0,0,0-.18-.76A.61.61,0,0,0,619.79,113.1Z"/><path class="cls-4" d="M629.35,130.08l.21-.42.81-1,1.18-1.46a59.07,59.07,0,0,0,7.23-8.23,101.54,101.54,0,0,0,7-11,14.36,14.36,0,0,0,.94-1.51c.34-.63.73-1.41,1.15-2.35a.65.65,0,0,0-.16-.47.69.69,0,0,0-.52-.16,4.72,4.72,0,0,0-1,.18,4.37,4.37,0,0,1-1.07.19h-6.53c-.28,0-.74,0-1.39-.06s-1.1,0-1.38,0c-.35-.17-.67-.32-1-.44s-.58-.25-.86-.39a2.55,2.55,0,0,1-1-.55,1.14,1.14,0,0,1-.34-.81,14.43,14.43,0,0,1,.71-5.12c.47-1.19,1.19-1.78,2.17-1.78a26.23,26.23,0,0,1,2.74.13,22.36,22.36,0,0,1,2.28.34c.52-.1,1-.21,1.46-.31a23.75,23.75,0,0,1,2.41.1,9.13,9.13,0,0,1,1.51.26c.46-.1.9-.2,1.34-.28l1.44-.29,1.72.52c1.22-.14,2.52-1.84,3.9-5.12S657.17,85,658.74,85a2.41,2.41,0,0,1,1.93.78,3.45,3.45,0,0,1,.68,2.3,9.84,9.84,0,0,1-.7,3.16,13.63,13.63,0,0,0-.82,3,3,3,0,0,0,.29.44,3.87,3.87,0,0,0,.54.55,1.14,1.14,0,0,1,.43.7,4.78,4.78,0,0,1,.13,1.23,31.18,31.18,0,0,1-.28,4.83c-.2,1.14-.5,1.72-.92,1.75l-3.54.74c-.07.34-.15.77-.26,1.28s-.24,1.08-.42,1.75q-.88,2.61-2,6.63t-2.46,9.51c-.56,2.93-1,5.29-1.28,7.1a28.12,28.12,0,0,0-.45,3.66,2.47,2.47,0,0,0,.26,1.26.87.87,0,0,0,.79.41,9,9,0,0,0,2.27-1.51q2-1.51,5.46-4.49l2,4.8a14,14,0,0,1-1.47,1.36,27.79,27.79,0,0,1-2.24,1.67,16.23,16.23,0,0,1-1.31,1.28c-.52.47-1.09,1-1.72,1.65s-1.25,1.39-1.86,2.09-1.22,1.37-1.85,2a9.21,9.21,0,0,1-2.46,2,5.05,5.05,0,0,1-2.24.6,4.21,4.21,0,0,1-3.43-1.36,6.44,6.44,0,0,1-1.12-4.13q0-3,.21-5.25a16.05,16.05,0,0,1,.68-3.58,5.62,5.62,0,0,0,.31-.73,9.14,9.14,0,0,1,.16-1.41c.11-.59.23-1.29.37-2.09.21-1.36.43-2.72.68-4.08.38-.83.78-1.72,1.2-2.66,0-.17-.14-.33-.42-.47l-.52.31a18.14,18.14,0,0,1-2,2.64,36.25,36.25,0,0,1-3,2.9q-2.67,2.56-5.43,5.17a8.51,8.51,0,0,1-.58.79c-.28.34-.59.78-.94,1.3l-.65-1.59q-.39-1-.81-2.22a3.4,3.4,0,0,0-.26-.58A1.48,1.48,0,0,0,629.35,130.08Z"/></svg>